<svg aria-hidden="true" style="position: absolute; width: 0; height: 0; overflow: hidden;" version="1.1" xmlns="http://www.w3.org/2000/svg" xmlns:xlink="http://www.w3.org/1999/xlink">
<defs>
<symbol id="icon-Arrow-nav" viewBox="0 0 43 32">
<path d="M5.789 15.997l11.89-11.89c0.961-0.961 0.961-2.45 0-3.411-0.937-0.937-2.426-0.937-3.387 0l-13.595 13.595c-0.937 0.961-0.937 2.45 0 3.387l13.595 13.595c0.961 0.961 2.45 0.961 3.387 0 0.961-0.961 0.961-2.45 0-3.387l-11.89-11.89z"></path>
<path d="M8.191 13.595l9.488-9.488c0.961-0.961 0.961-2.45 0-3.411-0.937-0.937-2.426-0.937-3.387 0l-13.595 13.595c-0.937 0.961-0.937 2.45 0 3.387l13.595 13.595c0.961 0.961 2.45 0.961 3.387 0 0.961-0.961 0.961-2.45 0-3.387l-9.488-9.488h34.469v-4.804h-34.469z"></path>
</symbol>
<symbol id="icon-fb-icon" viewBox="0 0 32 32">
<path d="M23.98 2.12c-1.34-0.14-2.69-0.21-4.050-0.21-4.48 0-7.27 2.86-7.27 7.46v3.12h-3.77c-0.17 0-0.34 0.070-0.47 0.19-0.12 0.13-0.19 0.3-0.19 0.48v5.13c0 0.18 0.070 0.35 0.19 0.47 0.13 0.13 0.3 0.2 0.47 0.2h3.77v10.29c0 0.18 0.070 0.35 0.2 0.47 0.12 0.13 0.29 0.2 0.47 0.2h5.3c0.18 0 0.35-0.070 0.47-0.2 0.13-0.12 0.2-0.29 0.2-0.47v-10.29h3.75c0.17 0 0.32-0.060 0.44-0.17 0.13-0.11 0.2-0.25 0.23-0.41l0.66-5.14c0.010-0.090 0-0.19-0.030-0.28-0.020-0.090-0.070-0.17-0.13-0.24s-0.14-0.13-0.23-0.17c-0.080-0.040-0.18-0.060-0.27-0.060h-4.42v-2.61c0-1.3 0.26-1.84 1.88-1.84h2.71c0.18 0 0.35-0.070 0.48-0.19 0.12-0.13 0.19-0.3 0.19-0.47v-4.6c0-0.16-0.060-0.31-0.16-0.44-0.11-0.12-0.26-0.2-0.42-0.22zM23.23 6.71h-2.050c-2.88 0-3.21 1.81-3.21 3.17v3.28c0 0.17 0.070 0.34 0.19 0.47 0.13 0.12 0.29 0.19 0.47 0.19h4.33l-0.49 3.8h-3.84c-0.17 0-0.34 0.070-0.47 0.2-0.12 0.12-0.19 0.29-0.19 0.47v10.29h-3.97v-10.29c0-0.18-0.080-0.35-0.2-0.47-0.13-0.13-0.29-0.2-0.47-0.2h-3.77v-3.8h3.77c0.18 0 0.34-0.070 0.47-0.19 0.12-0.13 0.2-0.3 0.2-0.47v-3.79c0-3.83 2.22-6.12 5.93-6.12 1.35 0 2.56 0.070 3.3 0.14v3.32z"></path>
</symbol>
<symbol id="icon-inst-icon" viewBox="0 0 32 32">
<path d="M16 10.25c-1.14 0-2.25 0.33-3.2 0.96-0.95 0.64-1.68 1.53-2.12 2.58-0.43 1.060-0.55 2.21-0.32 3.33 0.22 1.11 0.76 2.14 1.57 2.94 0.8 0.81 1.83 1.35 2.94 1.57 1.12 0.23 2.27 0.11 3.33-0.32 1.050-0.44 1.94-1.17 2.58-2.12 0.63-0.95 0.97-2.060 0.97-3.19 0-1.53-0.61-2.99-1.69-4.070s-2.54-1.68-4.060-1.68zM16 20.25c-0.85 0-1.67-0.25-2.37-0.72s-1.24-1.13-1.56-1.91c-0.32-0.78-0.41-1.63-0.24-2.45 0.16-0.83 0.57-1.59 1.16-2.18s1.35-1 2.18-1.16c0.82-0.17 1.67-0.080 2.45 0.24s1.44 0.86 1.91 1.56c0.47 0.7 0.72 1.52 0.72 2.37-0.010 1.12-0.46 2.2-1.25 3-0.8 0.79-1.88 1.24-3 1.25zM21.5 3.75h-11c-1.8 0-3.51 0.71-4.78 1.97-1.26 1.27-1.97 2.98-1.97 4.78v11c0 1.79 0.71 3.5 1.97 4.77 1.27 1.26 2.98 1.98 4.78 1.98h11c1.79 0 3.5-0.72 4.77-1.98 1.26-1.27 1.98-2.98 1.98-4.77v-11c0-1.8-0.72-3.51-1.98-4.78-1.27-1.26-2.98-1.97-4.77-1.97zM26.75 21.5c0 1.39-0.56 2.72-1.54 3.71-0.99 0.98-2.32 1.54-3.71 1.54h-11c-1.4 0-2.73-0.56-3.72-1.54-0.98-0.99-1.53-2.32-1.53-3.71v-11c0-1.4 0.55-2.73 1.53-3.72 0.99-0.98 2.32-1.53 3.72-1.53h11c1.39 0 2.72 0.55 3.71 1.53 0.98 0.99 1.54 2.32 1.54 3.72v11zM23.75 9.5c0 0.24-0.080 0.48-0.22 0.69-0.13 0.2-0.33 0.37-0.56 0.46-0.22 0.090-0.48 0.12-0.72 0.070s-0.46-0.17-0.64-0.34c-0.17-0.18-0.29-0.4-0.34-0.64s-0.020-0.49 0.070-0.72c0.090-0.23 0.26-0.43 0.46-0.56 0.21-0.14 0.45-0.21 0.7-0.21 0.33 0 0.64 0.13 0.88 0.36 0.23 0.24 0.37 0.55 0.37 0.89z"></path>
</symbol>
<symbol id="icon-tel-icon" viewBox="0 0 32 32">
<path d="M27.65 22.95l-0.17-0.21c-1.38-1.74-2.52-2.64-3.51-2.76-0.85-0.12-1.67 0.47-2.54 1.080l-0.94 0.58c-0.11 0.060-0.22 0.1-0.33 0.13-0.54 0.16-1.92 0.25-2.7-0.47-0.91-0.83-2.32-2.35-3.42-3.68-1.050-1.38-2.2-3.1-2.8-4.18-0.51-0.91-0.090-2.19 0.2-2.67 0.050-0.090 0.13-0.18 0.21-0.27l0.82-0.77c0.020-0.010 0.020-0.020 0.030-0.030s0.020-0.010 0.030-0.020c0.75-0.62 1.52-1.27 1.62-2.1 0.12-0.98-0.48-2.3-1.86-4.030l-0.16-0.22c-0.86-1.090-2.14-2.74-3.99-2.46-0.73 0.1-1.38 0.35-2.050 0.77 0 0.010-0.010 0.010-0.010 0.020-0.010 0-0.010 0-0.020 0.010l-0.93 0.69c-0.010 0-0.020 0.010-0.020 0.020-0.010 0.010-0.020 0.010-0.030 0.020-0.11 0.090-0.22 0.18-0.32 0.28-0.95 0.84-2.99 3.29-1.6 7.81 0.9 2.92 2.76 6.33 5.39 9.88l-0.030 0.020 1.45 1.81 0.020-0.010c2.84 3.37 5.74 5.98 8.4 7.55 1.78 1.060 3.32 1.41 4.6 1.41 1.68 0 2.88-0.61 3.48-1l0.38-0.25c0.040-0.030 0.070-0.070 0.1-0.11l0.83-0.62c0.010-0.010 0.010-0.020 0.020-0.030 0.010 0 0.010 0 0.020 0 0.59-0.54 0.99-1.1 1.27-1.77 0.74-1.7-0.57-3.34-1.44-4.42zM28.11 26.95c-0.22 0.52-0.54 0.96-1 1.39l-1.23 0.92c-1.11 0.72-3.49 1.62-6.94-0.43-2.66-1.58-5.58-4.25-8.46-7.71l-0.78-0.99c-2.71-3.59-4.62-7.040-5.52-9.95-1.17-3.8 0.31-5.83 1.29-6.71 0.1-0.090 0.2-0.18 0.3-0.26v0l0.9-0.67c0.54-0.34 1.050-0.53 1.63-0.62 1.24-0.19 2.24 1.12 2.98 2.070l0.18 0.22c1.53 1.94 1.68 2.86 1.63 3.23-0.050 0.42-0.68 0.96-1.24 1.43l-0.080 0.060c-0.010 0.010-0.010 0.010-0.010 0.010 0 0.010-0.010 0.010-0.010 0.010l-0.85 0.79c-0.010 0-0.010 0.010-0.020 0.020 0 0-0.010 0.010-0.020 0.010-0.13 0.15-0.24 0.3-0.34 0.45-0.47 0.8-0.93 2.46-0.21 3.74 0.62 1.12 1.8 2.89 2.89 4.32 1.14 1.38 2.59 2.95 3.54 3.81 0.7 0.64 1.68 0.86 2.53 0.86 0.46 0 0.87-0.060 1.19-0.15 0.17-0.050 0.34-0.12 0.52-0.21 0.010 0 0.010-0.010 0.020-0.020 0.010 0 0.020 0 0.020 0l0.99-0.62c0.030-0.020 0.050-0.050 0.080-0.080l0.010 0.010c0.61-0.42 1.31-0.91 1.74-0.84 0.39 0.040 1.26 0.42 2.8 2.36l0.18 0.22c0.75 0.94 1.77 2.21 1.29 3.33z"></path>
</symbol>
</defs>
<symbol id="icon-menu" viewBox="0 0 32 32">
<path d="M29.333 24c0 0.733-0.6 1.333-1.333 1.333h-10.68c-0.347 0-0.693-0.147-0.933-0.4-0.253-0.24-0.387-0.587-0.387-0.933s0.133-0.693 0.387-0.933c0.24-0.253 0.587-0.4 0.933-0.4h10.68c0.733 0 1.333 0.6 1.333 1.333zM29.333 16c0 0.72-0.6 1.32-1.333 1.32h-24.013c-0.347 0-0.693-0.133-0.933-0.387-0.253-0.253-0.387-0.587-0.387-0.933 0-0.36 0.133-0.693 0.387-0.947 0.24-0.253 0.587-0.387 0.933-0.387h24.013c0.733 0 1.333 0.6 1.333 1.333zM28 9.32c0.347 0 0.693-0.147 0.933-0.4 0.253-0.24 0.4-0.587 0.4-0.933s-0.147-0.693-0.4-0.933c-0.24-0.253-0.587-0.387-0.933-0.387h-16.013c-0.173 0-0.347 0.027-0.507 0.093s-0.307 0.16-0.427 0.293c-0.133 0.12-0.227 0.267-0.293 0.427s-0.093 0.333-0.093 0.507c0 0.173 0.027 0.347 0.093 0.507s0.16 0.307 0.293 0.427c0.12 0.133 0.267 0.227 0.427 0.293s0.333 0.107 0.507 0.107h16.013z"></path>
</symbol>
</svg>